<?xml version="1.0" encoding="iso-8859-1"?>
<!-- Uploaded to: SVG Repo, www.svgrepo.com, Generator: SVG Repo Mixer Tools -->
<!DOCTYPE svg PUBLIC "-//W3C//DTD SVG 1.1//EN" "http://www.w3.org/Graphics/SVG/1.1/DTD/svg11.dtd">
<svg fill="#000000" version="1.1" id="Capa_1" xmlns="http://www.w3.org/2000/svg" xmlns:xlink="http://www.w3.org/1999/xlink" 
	 width="16px" height="16px" viewBox="0 0 68.106 68.106"
	 xml:space="preserve">
<g>
	<g>
		<g>
			<g>
				<path d="M10.117,65.809H2.434C1.092,65.809,0,64.717,0,63.375V3.847c0-1.341,1.092-2.433,2.434-2.433h32.06
					c1.342,0,2.434,1.091,2.434,2.433v6.447c0,1.341-1.092,2.433-2.434,2.433H12.55v14.919h20.09c1.342,0,2.434,1.091,2.434,2.433
					v6.358c0,1.342-1.092,2.434-2.434,2.434H12.55v24.506C12.55,64.717,11.459,65.809,10.117,65.809z M3.001,62.809H9.55V37.37
					c0-0.829,0.672-1.5,1.5-1.5h21.024v-5.224H11.05c-0.828,0-1.5-0.671-1.5-1.5V11.227c0-0.829,0.672-1.5,1.5-1.5h22.877V4.414
					H3.001V62.809z"/>
			</g>
		</g>
		<g>
			<g>
				<path d="M58.344,66.692c-4.342,0-7.875-1.417-10.222-4.099c-2.444-2.539-3.606-6.601-3.606-12.73V28.978h-4.189
					c-1.342,0-2.434-1.091-2.434-2.433v-5.918c0-1.341,1.092-2.433,2.434-2.433h4.189v-7.811c0-1.099,0.742-2.065,1.805-2.35
					c0.127-0.034,0.257-0.051,0.388-0.051l7.449-0.003c0.658-0.103,1.345,0.069,1.87,0.471c0.597,0.458,0.951,1.18,0.951,1.93v7.815
					h8.695c1.342,0,2.433,1.091,2.433,2.433v5.918c0,1.341-1.091,2.433-2.433,2.433h-8.695V49.6c0,5.869,1.884,5.869,3.396,5.869
					c1.762,0,3.407-0.229,4.192-0.444c0.729-0.195,1.466-0.052,2.054,0.368c0.6,0.43,0.967,1.093,1.016,1.824l0.027,5.922
					c0.059,0.955-0.545,1.916-1.503,2.312C64.21,66.252,61.436,66.692,58.344,66.692z M40.893,25.978h5.123
					c0.828,0,1.5,0.671,1.5,1.5v22.385c0,5.307,0.896,8.707,2.816,10.703c1.809,2.062,4.561,3.126,8.012,3.126
					c2.516,0,4.738-0.312,6.32-0.882l-0.021-4.729c-1.021,0.201-2.543,0.387-4.269,0.387c-4.362,0-6.396-2.818-6.396-8.871v-22.12
					c0-0.829,0.672-1.5,1.5-1.5h9.627v-4.783h-9.627c-0.828,0-1.5-0.671-1.5-1.5v-8.716l-6.463,0.002v8.714
					c0,0.829-0.672,1.5-1.5,1.5h-5.123V25.978L40.893,25.978z"/>
			</g>
		</g>
	</g>
</g>
</svg>